<svg width="21" height="20" viewBox="0 0 21 20" fill="none" xmlns="http://www.w3.org/2000/svg">
<path d="M9.02751 17.3802L9.00489 17.3576L8.97957 17.338L6.85051 15.6938L7.00517 15.4937L9.17538 17.1739C9.36073 17.3414 9.6191 17.4553 9.85439 17.5281C10.1129 17.608 10.4106 17.6587 10.699 17.6587H13.8656C14.3678 17.6587 14.8592 17.4613 15.2443 17.1763C15.6219 16.8968 15.9484 16.4947 16.071 16.0237L18.08 9.92187C18.2485 9.45275 18.2441 8.93762 17.947 8.52572C17.6455 8.10251 17.1382 7.90873 16.6156 7.90873H13.2823C12.992 7.90873 12.7303 7.78684 12.5515 7.58089L12.5508 7.58016C12.3678 7.37022 12.2811 7.08586 12.3266 6.77537L12.7411 4.11469C12.8866 3.39389 12.4186 2.63966 11.7475 2.41178C11.4108 2.29041 11.0594 2.32668 10.7807 2.42005C10.5067 2.51187 10.2243 2.68546 10.0536 2.9338L10.0536 2.93379L10.0506 2.93815L6.91237 7.6073L6.71005 7.47188L9.84727 2.80432L9.84764 2.80377C10.2435 2.2131 11.148 1.91735 11.8298 2.17618L11.8406 2.18025L11.8515 2.18383C12.6532 2.44681 13.1715 3.34806 12.9938 4.16022L12.9906 4.17513L12.9882 4.19021L12.5799 6.81521L12.5799 6.81521L12.579 6.82136C12.5639 6.92683 12.5436 7.19642 12.7477 7.42965L12.7586 7.44218L12.7704 7.45395C12.9088 7.59234 13.0956 7.66707 13.2906 7.66707H16.624C17.3013 7.66707 17.8465 7.9476 18.1568 8.38829L18.158 8.3899C18.4603 8.81562 18.538 9.39863 18.3207 9.99619L18.318 10.0036L18.3156 10.0111L16.3239 16.0778L16.3186 16.0938L16.3145 16.1101C16.0663 17.0828 14.9938 17.9171 13.8656 17.9171H10.699C10.5066 17.9171 10.18 17.8867 9.84547 17.796C9.50407 17.7034 9.21025 17.5629 9.02751 17.3802Z" stroke="#262626"/>
<path d="M4.78516 16.9993H3.95182C3.25053 16.9993 2.82628 16.8339 2.57495 16.5915C2.32714 16.3525 2.16016 15.9542 2.16016 15.291V7.12435C2.16016 6.46121 2.32714 6.06282 2.57495 5.82384C2.82628 5.58146 3.25053 5.41602 3.95182 5.41602H4.78516C5.48645 5.41602 5.9107 5.58146 6.16203 5.82384C6.40984 6.06282 6.57682 6.46121 6.57682 7.12435V15.291C6.57682 15.9542 6.40984 16.3525 6.16203 16.5915C5.9107 16.8339 5.48645 16.9993 4.78516 16.9993ZM3.95182 5.66602C3.71076 5.66602 3.48887 5.6798 3.29495 5.72391C3.09663 5.76903 2.89776 5.85255 2.73681 6.0135C2.57451 6.17581 2.496 6.37156 2.45627 6.55699C2.41809 6.73523 2.41016 6.9312 2.41016 7.12435V15.291C2.41016 15.4842 2.41809 15.6801 2.45627 15.8584C2.496 16.0438 2.57451 16.2396 2.73681 16.4019C2.89776 16.5628 3.09663 16.6463 3.29495 16.6915C3.48887 16.7356 3.71076 16.7493 3.95182 16.7493H4.78516C5.02622 16.7493 5.24811 16.7356 5.44203 16.6915C5.64035 16.6463 5.83922 16.5628 6.00017 16.4019C6.16247 16.2396 6.24098 16.0438 6.28071 15.8584C6.31889 15.6801 6.32682 15.4842 6.32682 15.291V7.12435C6.32682 6.9312 6.31889 6.73523 6.28071 6.55699C6.24098 6.37156 6.16247 6.17581 6.00017 6.0135C5.83922 5.85255 5.64035 5.76903 5.44203 5.72391C5.24811 5.6798 5.02622 5.66602 4.78516 5.66602H3.95182Z" stroke="#262626"/>
</svg>
