<svg width="21" height="20" viewBox="0 0 21 20" fill="none" xmlns="http://www.w3.org/2000/svg">
<path d="M10.2662 2.90329L10.2662 2.90329L10.2683 2.90016C10.3774 2.7352 10.5935 2.56398 10.8721 2.4655C11.1464 2.36856 11.4359 2.35806 11.6846 2.451L11.6923 2.45386L11.7001 2.45648C12.289 2.65479 12.6729 3.33141 12.5541 3.88619L12.5513 3.89924L12.5492 3.91243L12.1158 6.63743L12.1157 6.63741L12.114 6.64987C12.063 7.03281 12.1658 7.39622 12.396 7.68055L12.4038 7.69015L12.412 7.69935C12.6443 7.95898 12.9862 8.12429 13.3596 8.12429H16.7846C17.3081 8.12429 17.7103 8.33319 17.9351 8.64677C18.143 8.94324 18.2016 9.35194 18.038 9.81656L18.0379 9.81652L18.0346 9.8266L15.9846 16.0683L15.979 16.0855L15.9746 16.103C15.7759 16.8977 14.8638 17.5993 13.9596 17.5993H10.7096C10.4812 17.5993 10.1939 17.5591 9.92772 17.4796C9.65122 17.397 9.45739 17.2899 9.36319 17.1957L9.3407 17.1732L9.31553 17.1538L8.24887 16.3288L8.24889 16.3288L8.24427 16.3253C7.96339 16.1132 7.79297 15.7704 7.79297 15.4076V6.94095C7.79297 6.70782 7.86291 6.47943 7.99182 6.28573C7.99199 6.28548 7.99216 6.28522 7.99233 6.28497L10.2662 2.90329Z" fill="#FFEDE0" stroke="#FF6600"/>
<path d="M3.78542 5.81641H4.64375C5.24335 5.81641 5.53776 5.93589 5.69137 6.0824C5.83913 6.22332 5.96042 6.48949 5.96042 7.04974V15.4331C5.96042 15.9933 5.83913 16.2595 5.69137 16.4004C5.53776 16.5469 5.24335 16.6664 4.64375 16.6664H3.78542C3.18582 16.6664 2.89141 16.5469 2.73779 16.4004C2.59003 16.2595 2.46875 15.9933 2.46875 15.4331V7.04974C2.46875 6.48949 2.59003 6.22332 2.73779 6.0824C2.89141 5.93589 3.18582 5.81641 3.78542 5.81641Z" fill="#FFEDE0" stroke="#FF6600"/>
</svg>
