<svg width="21" height="20" viewBox="0 0 21 20" fill="none" xmlns="http://www.w3.org/2000/svg">
<path d="M12.0741 2.61982L12.0967 2.64244L12.122 2.66199L14.2511 4.30622L14.0964 4.50628L11.9262 2.82612C11.7408 2.65862 11.4825 2.54466 11.2472 2.47191C10.9887 2.39199 10.691 2.34127 10.4026 2.34127H7.23594C6.7338 2.34127 6.24234 2.53871 5.85723 2.82375C5.47971 3.10316 5.15321 3.5053 5.03061 3.97633L3.02158 10.0781C2.85307 10.5473 2.85745 11.0624 3.15459 11.4743C3.45608 11.8975 3.96334 12.0913 4.48594 12.0913H7.81927C8.10959 12.0913 8.37124 12.2132 8.55009 12.4191L8.55072 12.4198C8.73375 12.6298 8.82045 12.9141 8.77492 13.2246L8.36048 15.8853C8.21494 16.6061 8.68299 17.3603 9.35405 17.5882C9.69079 17.7096 10.0421 17.6733 10.3208 17.58C10.5949 17.4881 10.8772 17.3145 11.048 17.0662L11.048 17.0662L11.0509 17.0619L14.1892 12.3927L14.3915 12.5281L11.2543 17.1957L11.2539 17.1962C10.8581 17.7869 9.95352 18.0826 9.27173 17.8238L9.261 17.8197L9.2501 17.8162C8.44833 17.5532 7.93006 16.6519 8.10772 15.8398L8.11098 15.8249L8.11333 15.8098L8.52166 13.1848L8.5217 13.1848L8.52258 13.1786C8.53765 13.0732 8.55797 12.8036 8.35389 12.5703L8.34293 12.5578L8.33116 12.546C8.19277 12.4077 8.00598 12.3329 7.81094 12.3329H4.4776C3.80027 12.3329 3.25508 12.0524 2.94474 11.6117L2.9436 11.6101C2.64128 11.1844 2.56354 10.6014 2.78083 10.0038L2.78353 9.99639L2.78599 9.98889L4.77766 3.92223L4.78292 3.90622L4.78708 3.88989C5.03528 2.91723 6.10776 2.08293 7.23594 2.08293H10.4026C10.595 2.08293 10.9216 2.11331 11.2561 2.20404C11.5975 2.29664 11.8913 2.43709 12.0741 2.61982Z" stroke="#262626"/>
<path d="M16.3164 3.00065H17.1497C17.851 3.00065 18.2753 3.1661 18.5266 3.40847C18.7744 3.64745 18.9414 4.04585 18.9414 4.70898V12.8757C18.9414 13.5388 18.7744 13.9372 18.5266 14.1762C18.2753 14.4185 17.851 14.584 17.1497 14.584H16.3164C15.6151 14.584 15.1909 14.4185 14.9395 14.1762C14.6917 13.9372 14.5247 13.5388 14.5247 12.8757V4.70898C14.5247 4.04585 14.6917 3.64745 14.9395 3.40847C15.1909 3.1661 15.6151 3.00065 16.3164 3.00065ZM17.1497 14.334C17.3908 14.334 17.6127 14.3202 17.8066 14.2761C18.0049 14.231 18.2038 14.1474 18.3648 13.9865C18.5271 13.8242 18.6056 13.6284 18.6453 13.443C18.6835 13.2648 18.6914 13.0688 18.6914 12.8757V4.70898C18.6914 4.51584 18.6835 4.31987 18.6453 4.14162C18.6056 3.95619 18.5271 3.76044 18.3648 3.59814C18.2038 3.43719 18.0049 3.35367 17.8066 3.30855C17.6127 3.26444 17.3908 3.25065 17.1497 3.25065H16.3164C16.0753 3.25065 15.8535 3.26444 15.6595 3.30855C15.4612 3.35367 15.2623 3.43719 15.1014 3.59814C14.9391 3.76044 14.8606 3.95619 14.8209 4.14162C14.7827 4.31987 14.7747 4.51584 14.7747 4.70898V12.8757C14.7747 13.0688 14.7827 13.2648 14.8209 13.443C14.8606 13.6284 14.9391 13.8242 15.1014 13.9865C15.2623 14.1474 15.4612 14.231 15.6595 14.2761C15.8535 14.3202 16.0753 14.334 16.3164 14.334H17.1497Z" stroke="#262626"/>
</svg>
