<svg width="21" height="20" viewBox="0 0 21 20" fill="none" xmlns="http://www.w3.org/2000/svg">
<path d="M10.8353 17.0967L10.8353 17.0967L10.8333 17.0998C10.7241 17.2648 10.5081 17.436 10.2295 17.5345C9.9552 17.6314 9.66568 17.6419 9.41692 17.549L9.40925 17.5461L9.40149 17.5435C8.81257 17.3452 8.42861 16.6686 8.54749 16.1138L8.55029 16.1008L8.55239 16.0876L8.98572 13.3626L8.98588 13.3626L8.98754 13.3501C9.0386 12.9672 8.93573 12.6038 8.70555 12.3194L8.69778 12.3098L8.68955 12.3006C8.45725 12.041 8.11538 11.8757 7.74193 11.8757H4.31693C3.79341 11.8757 3.39129 11.6668 3.16651 11.3532C2.9586 11.0568 2.89995 10.6481 3.06354 10.1834L3.06365 10.1835L3.06696 10.1734L5.11696 3.93173L5.12261 3.91454L5.127 3.89698C5.32568 3.10225 6.23776 2.40071 7.14193 2.40071H10.3919C10.6204 2.40071 10.9077 2.44093 11.1738 2.52043C11.4503 2.60301 11.6442 2.71007 11.7384 2.80427L11.7609 2.82676L11.786 2.84622L12.8527 3.67122L12.8527 3.67125L12.8573 3.67473C13.1382 3.88682 13.3086 4.22959 13.3086 4.59238L13.3086 13.059C13.3086 13.2922 13.2387 13.5206 13.1097 13.7143C13.1096 13.7145 13.1094 13.7148 13.1092 13.715L10.8353 17.0967Z" fill="#FFEDE0" stroke="#FF6600"/>
<path d="M17.3161 14.1836H16.4578C15.8582 14.1836 15.5638 14.0641 15.4102 13.9176C15.2624 13.7767 15.1411 13.5105 15.1411 12.9503L15.1411 4.56693C15.1411 4.00668 15.2624 3.74051 15.4102 3.59958C15.5638 3.45308 15.8582 3.33359 16.4578 3.33359H17.3161C17.9157 3.33359 18.2102 3.45308 18.3638 3.59958C18.5115 3.74051 18.6328 4.00668 18.6328 4.56693V12.9503C18.6328 13.5105 18.5115 13.7767 18.3638 13.9176C18.2102 14.0641 17.9157 14.1836 17.3161 14.1836Z" fill="#FFEDE0" stroke="#FF6600"/>
</svg>
